<svg xmlns="http://www.w3.org/2000/svg" viewBox="0 0 266.27 40.5">
	<defs>
		<style>
			.cls-1{fill:#ccc;}
		</style>
	</defs>
	<title>
		logo_1
	</title>
	<g id="Layer_2" data-name="Layer 2">
		<g id="Layer_1-2" data-name="Layer 1">
			<path class="cls-1" d="M22.32,29V11.87h3.81V29Zm14.31-6.71a8.57,8.57,0,0,1-.52,1.86,11.92,11.92,0,0,1-1.44,2.69A4.79,4.79,0,0,1,33,28.23a5.79,5.79,0,0,1-2.15.59c-.81.07-1.76.12-2.87.13V25.78h.55l.55,0a5.42,5.42,0,0,0,2.19-.35,2.09,2.09,0,0,0,1.06-1,4.53,4.53,0,0,0,.34-1.72c0-.69,0-1.48,0-2.37a10.47,10.47,0,0,0-.18-2,4.38,4.38,0,0,0-.63-1.61,3.39,3.39,0,0,0-1.24-1.1,4.79,4.79,0,0,0-2-.49,1.66,1.66,0,0,1-.35-.05l-.34,0V11.85h1.76l.26,0a1.53,1.53,0,0,1,.24.07l.48.12A7.89,7.89,0,0,1,33.4,13.2,7.05,7.05,0,0,1,35.29,15a8,8,0,0,1,1.12,2.43,10.36,10.36,0,0,1,.38,2.87A11.08,11.08,0,0,1,36.63,22.24Z" />
			<path class="cls-1" d="M40,29v-17H43.8V29Z" />
			<path class="cls-1" d="M50.34,29H46l4.59-7.81,2.19,3.37Zm7,0-10.93-17h4.34L61.68,29Zm-.26-10.2L55,15.36l2-3.46h4.35Z" />
			<path class="cls-1" d="M64.1,29v-17h3.59V29Zm12.13-9c0,.19-.11.38-.17.59s-.13.4-.19.59-.09.34-.11.44L74.71,29H70.86l-1-7.22a3.94,3.94,0,0,0-.11-.44l-.18-.6a5.26,5.26,0,0,1-.17-.58,2,2,0,0,1-.08-.38V11.92h.17c.59,2.17,1.17,4.32,1.76,6.46s1.11,4.29,1.59,6.5c.42-2.21.92-4.37,1.5-6.5s1.15-4.29,1.72-6.46h.29v7.66A1.62,1.62,0,0,1,76.23,20Zm1.68,9v-17h3.56V29Z" />
			<path class="cls-1" d="M91.45,29.25l-.8,0a4.13,4.13,0,0,1-.78-.08A6.32,6.32,0,0,1,87.16,28a7,7,0,0,1-1.83-2,9.22,9.22,0,0,1-1-2.65,13.5,13.5,0,0,1-.33-3,12.33,12.33,0,0,1,.47-3.44,8,8,0,0,1,1.39-2.81,6.7,6.7,0,0,1,2.34-1.9,7.77,7.77,0,0,1,3.32-.76V14.7a3.55,3.55,0,0,0-1.81.65,3.68,3.68,0,0,0-1.06,1.29,5.47,5.47,0,0,0-.5,1.72,16,16,0,0,0-.12,2,18.44,18.44,0,0,0,.11,2.06,4.88,4.88,0,0,0,.47,1.66,3.48,3.48,0,0,0,1.05,1.21,5,5,0,0,0,1.86.73Zm9-5.63a9,9,0,0,1-1.29,2.86,6.76,6.76,0,0,1-2.2,2,6.22,6.22,0,0,1-3.16.77h-.44V26a4.86,4.86,0,0,0,1.83-.69,3.07,3.07,0,0,0,1-1.16,4.55,4.55,0,0,0,.49-1.6,15.35,15.35,0,0,0,.12-2c0-.72,0-1.41-.08-2.08a5.94,5.94,0,0,0-.44-1.8,3.35,3.35,0,0,0-1-1.33,3.73,3.73,0,0,0-1.92-.65V11.43q3.92.35,5.71,2.67a9.91,9.91,0,0,1,1.81,6.24A12.41,12.41,0,0,1,100.42,23.62Z" />
			<path class="cls-1" d="M103.61,29V11.85h3.83V29Zm10.2,0a11.29,11.29,0,0,1-.52-1.19,8.91,8.91,0,0,1-.34-1.28q-.12-.66-.18-1.29a4.41,4.41,0,0,0-.26-1.15,2.08,2.08,0,0,0-.63-.87,2.57,2.57,0,0,0-1.29-.45,3.91,3.91,0,0,1-.44,0,.94.94,0,0,0-.22,0h-.66l0-3.08H111a7.06,7.06,0,0,0,1.14-.08,1.33,1.33,0,0,0,1.12-1.13,6.87,6.87,0,0,0,.11-1.36,3.49,3.49,0,0,0-.14-1.08,1.1,1.1,0,0,0-.4-.6,1.5,1.5,0,0,0-.67-.26,6.22,6.22,0,0,0-.91-.06l-.92,0-.89,0h-.1V11.85c.64,0,1.27,0,1.91,0a11.64,11.64,0,0,1,1.8.1,8.06,8.06,0,0,1,1.61.36,3.19,3.19,0,0,1,1.3.81,3.91,3.91,0,0,1,.85,1.43,6.5,6.5,0,0,1,.32,2.19,4.54,4.54,0,0,1-.21,1.33,4.44,4.44,0,0,1-.61,1.28,3.69,3.69,0,0,1-1,1,2.26,2.26,0,0,1-1.27.38l.24.09.24.1a2.34,2.34,0,0,1,1.1.9,5.13,5.13,0,0,1,.6,1.37,11.35,11.35,0,0,1,.31,1.54c.06.52.13,1,.22,1.41a7.11,7.11,0,0,0,.42,1.48,9.66,9.66,0,0,0,.7,1.35Z" />
			<path class="cls-1" d="M127.28,29v-17h3.88V29Zm10.05,0V21.58H133V18.41h4.34V11.92h3.88V29Z" />
			<path class="cls-1" d="M151.29,29.25l-.81,0a4.13,4.13,0,0,1-.78-.08A6.38,6.38,0,0,1,147,28a7.24,7.24,0,0,1-1.83-2,9.2,9.2,0,0,1-1-2.65,13.5,13.5,0,0,1-.33-3,12.33,12.33,0,0,1,.46-3.44,8.22,8.22,0,0,1,1.39-2.81,6.65,6.65,0,0,1,2.35-1.9,7.76,7.76,0,0,1,3.31-.76V14.7a3.51,3.51,0,0,0-1.8.65,3.57,3.57,0,0,0-1.06,1.29,5.22,5.22,0,0,0-.5,1.72,14.21,14.21,0,0,0-.13,2,18.44,18.44,0,0,0,.11,2.06,5.12,5.12,0,0,0,.48,1.66,3.28,3.28,0,0,0,1.05,1.21,5,5,0,0,0,1.85.73Zm9-5.63a9.22,9.22,0,0,1-1.3,2.86,6.73,6.73,0,0,1-2.19,2,6.24,6.24,0,0,1-3.16.77h-.44V26a5,5,0,0,0,1.83-.69,3.24,3.24,0,0,0,1.05-1.16,4.77,4.77,0,0,0,.49-1.6,15.35,15.35,0,0,0,.12-2c0-.72,0-1.41-.09-2.08a5.41,5.41,0,0,0-.44-1.8,3.18,3.18,0,0,0-1-1.33,3.72,3.72,0,0,0-1.91-.65V11.43a7.71,7.71,0,0,1,5.71,2.67,10,10,0,0,1,1.81,6.24A12.83,12.83,0,0,1,160.26,23.62Z" />
			<path class="cls-1" d="M168.47,29.38l-.76-.06A5.55,5.55,0,0,1,164,27.64a6.41,6.41,0,0,1-1.29-4.08l3.83-.19c.13.53.25,1,.34,1.31a2.56,2.56,0,0,0,.39.83,1.48,1.48,0,0,0,.7.47,6.65,6.65,0,0,0,1.26.22l0,3.22Zm8.39-3.53a4.91,4.91,0,0,1-.85,1.41,5.51,5.51,0,0,1-1.27,1.07,5.67,5.67,0,0,1-1.54.67l-.58.16-.48.1-.49.06-.59.05v-3.2a4.29,4.29,0,0,0,.8-.12,2.39,2.39,0,0,0,.71-.31,1.44,1.44,0,0,0,.5-.54,1.86,1.86,0,0,0,.18-.86,1.53,1.53,0,0,0-.42-1.13,3.2,3.2,0,0,0-1.14-.7,11.14,11.14,0,0,0-1.61-.46c-.6-.13-1.22-.27-1.84-.43a16.3,16.3,0,0,1-1.84-.56,5.88,5.88,0,0,1-1.62-.88,4.05,4.05,0,0,1-1.13-1.39,4.58,4.58,0,0,1-.43-2.11,6,6,0,0,1,.44-2.41,4.06,4.06,0,0,1,1.22-1.59,4.87,4.87,0,0,1,1.86-.89,9,9,0,0,1,2.32-.28h.14v3.07a4.75,4.75,0,0,0-.78.06,1.71,1.71,0,0,0-.66.25,1.27,1.27,0,0,0-.46.51,1.75,1.75,0,0,0-.17.84,1.29,1.29,0,0,0,.44,1,3.42,3.42,0,0,0,1.14.62,10.52,10.52,0,0,0,1.61.4c.61.11,1.22.24,1.85.39a15.14,15.14,0,0,1,1.84.59,5.36,5.36,0,0,1,1.61,1,4.5,4.5,0,0,1,1.13,1.58,5.66,5.66,0,0,1,.43,2.36A4.2,4.2,0,0,1,176.86,25.85Zm-3.75-8.66c-.05-.44-.11-.81-.16-1.12a2,2,0,0,0-.3-.76,1.3,1.3,0,0,0-.57-.45,3.88,3.88,0,0,0-1-.23V11.51l.34,0a6.64,6.64,0,0,1,3.34,1.07,4.84,4.84,0,0,1,1.93,2.88,4.23,4.23,0,0,1,.13.71c0,.24.06.48.11.71Z" />
			<path class="cls-1" d="M179.87,29V11.87h3.83V29Zm12.87-8.81a3.9,3.9,0,0,1-1,1.72,3.72,3.72,0,0,1-1.75.91,10.83,10.83,0,0,1-2.5.25h-1.93v-3.1h1.22a8.54,8.54,0,0,0,1.08-.06,1.53,1.53,0,0,0,.76-.3,1.4,1.4,0,0,0,.46-.71,4.55,4.55,0,0,0,.14-1.24A4.06,4.06,0,0,0,189,16a1.64,1.64,0,0,0-.72-.77,2.75,2.75,0,0,0-1.13-.21h-1.56V11.87h2.54a7.16,7.16,0,0,1,2.32.33,3.5,3.5,0,0,1,1.53,1,4.08,4.08,0,0,1,.86,1.73,10.38,10.38,0,0,1,.27,2.53A9.24,9.24,0,0,1,192.74,20.14Z" />
			<path class="cls-1" d="M195.31,29v-17h3.83V29Z" />
			<path class="cls-1" d="M201.17,15V11.85h3.49V15ZM206.25,29V11.85h3.88V29ZM211.49,15V11.85h3.74V15Z" />
			<path class="cls-1" d="M225,29l-1.13-3.66h-3.8l.92-3.07,1.91,0c-.33-1.09-.67-2.17-1-3.24a15.64,15.64,0,0,1-.74-3.32c-.09.41-.17.81-.25,1.21a11.41,11.41,0,0,1-.32,1.21L217.4,29h-4.35l5.88-17h4.4l6,17Z" />
			<path class="cls-1" d="M231.7,29V11.85h3.88V29Zm5.68,0V25.78h6.27V29Z" />
			<polygon class="cls-1" points="17.36 2.48 17.36 0 3.31 0 0 0 0 2.48 0 38.02 0 40.5 3.31 40.5 17.36 40.5 17.36 38.02 3.31 38.02 3.31 2.48 17.36 2.48" />
			<polygon class="cls-1" points="248.91 2.48 248.91 0 262.96 0 266.26 0 266.26 2.48 266.26 38.02 266.26 40.5 262.96 40.5 248.91 40.5 248.91 38.02 262.96 38.02 262.96 2.48 248.91 2.48" />
		</g>
	</g>
</svg>
